<?xml version="1.0" standalone="no"?>
<!DOCTYPE svg PUBLIC "-//W3C//DTD SVG 20010904//EN" "http://www.w3.org/TR/2001/REC-SVG-20010904/DTD/svg10.dtd">
<!-- Created using Krita: https://krita.org -->
<svg xmlns="http://www.w3.org/2000/svg" 
    xmlns:xlink="http://www.w3.org/1999/xlink"
    xmlns:krita="http://krita.org/namespaces/svg/krita"
    xmlns:sodipodi="http://sodipodi.sourceforge.net/DTD/sodipodi-0.dtd"
    width="72pt"
    height="72pt"
    viewBox="0 0 72 72">
<defs/>
<rect id="shape0" transform="matrix(0.938697426872941 0 0 0.938697426872941 38.7680008009032 12.8855145606807)" fill="#404040" fill-rule="evenodd" stroke="#000000" stroke-width="1.44" stroke-linecap="square" stroke-linejoin="bevel" width="33.408" height="49.248"/><rect id="shape1" transform="matrix(0.938697426872941 0 0 0.938697426872941 34.8480003462818 14.3724112848474)" fill="#000000" fill-rule="evenodd" stroke="#000000" stroke-width="0.54432" stroke-linecap="square" stroke-linejoin="bevel" width="3.888" height="1.584"/><rect id="shape2" transform="matrix(0.938697426872941 0 0 0.938697426872941 34.9831727757515 19.3737911752265)" fill="#000000" fill-rule="evenodd" stroke="#000000" stroke-width="0.54432" stroke-linecap="square" stroke-linejoin="bevel" width="3.888" height="2.016"/><rect id="shape3" transform="matrix(0.938697426872941 0 0 0.938697426872941 34.9831727757515 25.3213780718934)" fill="#000000" fill-rule="evenodd" stroke="#000000" stroke-width="0.54432" stroke-linecap="square" stroke-linejoin="bevel" width="3.6" height="1.872"/><rect id="shape4" transform="matrix(0.938697426872941 0 0 0.938697426872941 34.4455170610984 31.6744822569695)" fill="#000000" fill-rule="evenodd" stroke="#000000" stroke-width="0.54432" stroke-linecap="square" stroke-linejoin="bevel" width="3.312" height="1.872"/><rect id="shape5" transform="matrix(0.938697426872941 0 0 0.938697426872941 35.3886900641606 38.0275864420455)" fill="#000000" fill-rule="evenodd" stroke="#000000" stroke-width="0.54432" stroke-linecap="square" stroke-linejoin="bevel" width="3.168" height="1.728"/><rect id="shape6" transform="matrix(0.938697426872941 0 0 0.938697426872941 35.1183452052212 43.8400009092428)" fill="#000000" fill-rule="evenodd" stroke="#000000" stroke-width="0.54432" stroke-linecap="square" stroke-linejoin="bevel" width="3.6" height="1.872"/><rect id="shape7" transform="matrix(0.938697426872941 0 0 0.938697426872941 34.9831727757515 49.65241537644)" fill="#000000" fill-rule="evenodd" stroke="#000000" stroke-width="0.54432" stroke-linecap="square" stroke-linejoin="bevel" width="3.6" height="2.016"/><rect id="shape8" transform="matrix(0.938697426872941 0 0 0.938697426872941 34.8480003462818 54.9241401257585)" fill="#000000" fill-rule="evenodd" stroke="#000000" stroke-width="0.54432" stroke-linecap="square" stroke-linejoin="bevel" width="3.744" height="1.872"/><path id="shape9" transform="matrix(0.938697426872941 0 0 0.938697426872941 43.4025728955317 18.6304846852192)" fill="#ff0000" fill-rule="evenodd" stroke="#000000" stroke-width="0.54432" stroke-linecap="square" stroke-linejoin="bevel" d="M0.712764 1.731L0 14.8662L1.731 17.0045L3.97111 15.1717L4.7857 2.34194L4.7857 1.731L2.85105 0Z" sodipodi:nodetypes="cccccccc"/><path id="shape10" transform="matrix(0.938697426872941 0 0 0.938697426872941 61.7541884206907 18.4971139959156)" fill="none" stroke="#000000" stroke-width="0.54432" stroke-linecap="square" stroke-linejoin="bevel" d="M0 15.1101L0 15.1101L0.63465 2.13369L2.82414 0L4.52295 2.16269L4.06526 15.0394L1.94175 17.2808Z" sodipodi:nodetypes="cccccccc"/><path id="shape11" transform="matrix(0.938697426872941 0 0 0.938697426872941 46.0673126768412 33.7020692500137)" fill="#ff0000" fill-rule="evenodd" stroke="#000000" stroke-width="0.54432" stroke-linecap="square" stroke-linejoin="bevel" d="M0 1.872L1.944 0.072L15.696 0L17.352 1.872L15.552 3.888L1.728 3.888L0 1.872" sodipodi:nodetypes="ccccccc"/><path id="shape12" transform="matrix(0.938697426872941 0 0 0.938697426872941 47.1486061380021 15.7241358133015)" fill="#ff0000" fill-rule="evenodd" stroke="#000000" stroke-width="0.54432" stroke-linecap="square" stroke-linejoin="bevel" d="M9.16096e-05 2.016C0.0164034 1.39572 1.41129 0.6048 2.01609 0C2.01609 0 2.01609 0 2.01609 0C6.09849 0.0216 11.5417 0.0504 15.6241 0.072C15.6241 0.072 15.6241 0.072 15.6241 0.072C16.1209 0.6336 16.7833 1.3824 17.2801 1.944C17.2801 1.944 17.2801 1.944 17.2801 1.944C16.7617 2.5056 16.0705 3.2544 15.5521 3.816C15.5521 3.816 15.5521 3.816 15.5521 3.816C11.4913 3.8808 6.07689 3.9672 2.01609 4.032C2.01609 4.032 2.01609 4.032 2.01609 4.032C1.34649 3.384 -0.0128397 2.50773 9.16096e-05 2.016Z" sodipodi:nodetypes="ccscscscsccc"/><path id="shape13" transform="matrix(0.938697426872941 0 0 0.938697426872941 42.4852432326842 36.2701436858569)" fill="none" stroke="#000000" stroke-width="0.54432" stroke-linecap="square" stroke-linejoin="bevel" d="M2.664 0.000214311C2.08504 0.0179921 1.3536 1.36101 0.792 1.94421C0.792 1.94421 0.792 1.94421 0.792 1.94421C0.5544 5.94022 0.2376 11.2682 0 15.2642C0 15.2642 0 15.2642 0 15.2642C0.54 15.8906 1.26 16.7258 1.8 17.3522C1.8 17.3522 1.8 17.3522 1.8 17.3522C2.4264 16.8122 3.2616 16.0922 3.888 15.5522C3.888 15.5522 3.888 15.5522 3.888 15.5522C4.1256 11.5346 4.4424 6.17782 4.68 2.16021C4.68 2.16021 4.68 2.16021 4.68 2.16021C4.1184 1.51221 3.34906 -0.0208212 2.664 0.000214311Z" sodipodi:nodetypes="ccssscscsccc"/><path id="shape14" transform="matrix(0.938697426872941 0 0 0.938697426872941 60.8686939649614 36.2703448589394)" fill="#ff0000" fill-rule="evenodd" stroke="#000000" stroke-width="0.54432" stroke-linecap="square" stroke-linejoin="bevel" d="M0.576 2.088L0 15.408L1.728 17.208L3.888 15.48L4.536 2.088L2.592 0C2.592 0.384 1.92 1.08 0.576 2.088Z" sodipodi:nodetypes="ccccccc"/><path id="shape15" transform="matrix(0.938697426872941 0 0 0.938697426872941 45.188691269325 51.6124156926637)" fill="#ff0000" fill-rule="evenodd" stroke="#000000" stroke-width="0.54432" stroke-linecap="square" stroke-linejoin="bevel" d="M0 1.872L1.944 0L15.552 0.072L17.28 1.944L15.552 3.6L1.728 3.816C1.728 3.816 1.152 3.168 0 1.872Z" sodipodi:nodetypes="ccccccc"/><ellipse id="shape16" transform="matrix(0.938697426872941 0 0 0.938697426872941 64.856279688556 52.3558639658341)" rx="1.728" ry="1.656" cx="1.728" cy="1.656" fill="#737373" fill-rule="evenodd" stroke="#000000" stroke-width="0.54432" stroke-linecap="square" stroke-linejoin="bevel"/><rect id="shape17" transform="translate(3.456, 12.672)" fill="#404040" fill-rule="evenodd" stroke="#000000" stroke-width="1.152" stroke-linecap="square" stroke-linejoin="bevel" width="31.392" height="46.8"/><path id="shape18" transform="translate(11.8624233452708, 15.8335350230868)" fill="#ff0000" fill-rule="evenodd" stroke="#000000" stroke-width="0.54432" stroke-linecap="square" stroke-linejoin="bevel" d="M0 1.83282L1.83282 0L14.7644 0.0509117L16.5972 1.88373L14.8662 3.61473L1.731 3.71655C1.731 3.71655 1.154 3.08864 0 1.83282Z" sodipodi:nodetypes="ccccccc"/><path id="shape19" transform="translate(8.14587010834046, 18.6336778728288)" fill="#ff0000" fill-rule="evenodd" stroke="#000000" stroke-width="0.54432" stroke-linecap="square" stroke-linejoin="bevel" d="M0.712764 1.731L2.74923 0L4.42932 1.83282L3.76746 14.2553L1.88373 16.3936L0 14.4589C0 14.4589 0.237588 10.2163 0.712764 1.731Z" sodipodi:nodetypes="ccccccc"/><path id="shape20" transform="translate(26.7795479811693, 18.5827661846517)" fill="#ff0000" fill-rule="evenodd" stroke="#000000" stroke-width="0.54432" stroke-linecap="square" stroke-linejoin="bevel" d="M0.560029 1.83282L0 14.5098L1.62917 16.3936L3.76746 14.5607L4.48023 1.83282L2.64741 0C2.64741 0 1.95161 0.61094 0.560029 1.83282Z" sodipodi:nodetypes="ccccccc"/><path id="shape21" transform="translate(10.8441895817282, 34.0599193904986)" fill="#ff0000" fill-rule="evenodd" stroke="#000000" stroke-width="0.54432" stroke-linecap="square" stroke-linejoin="bevel" d="M0 1.94008L1.93464 0L14.9171 0.0509117L16.5972 1.94008L14.8662 3.61473L1.68009 3.56382C1.68009 3.56382 1.12006 3.02257 0 1.94008Z" sodipodi:nodetypes="ccccccc"/><path id="shape22" transform="translate(7.28037140932929, 36.7582388638863)" fill="none" stroke="#000000" stroke-width="0.54432" stroke-linecap="square" stroke-linejoin="bevel" d="M0.61094 1.78191L0 14.4589L1.68009 16.3936L3.66564 14.5607L4.32749 1.83282L2.54558 0C2.54558 0 1.9007 0.59397 0.61094 1.78191Z" sodipodi:nodetypes="ccccccc"/><path id="shape23" transform="translate(25.7613142176267, 36.7073271757092)" fill="#ff0000" fill-rule="evenodd" stroke="#000000" stroke-width="0.54432" stroke-linecap="square" stroke-linejoin="bevel" d="M0.763675 1.78191L0 14.4589L1.78191 16.2917L3.66564 14.5098L4.37841 1.731L2.5965 0C2.5965 0 1.98556 0.59397 0.763675 1.78191Z" sodipodi:nodetypes="ccccccc"/><path id="shape24" transform="translate(9.97869088271707, 52.0826570052019)" fill="#ff0000" fill-rule="evenodd" stroke="#000000" stroke-width="0.54432" stroke-linecap="square" stroke-linejoin="bevel" d="M0 1.88373L1.88373 0L14.7644 0L16.4954 1.83282L14.7135 3.66564L1.57826 3.71655C1.57826 3.71655 1.05217 3.10561 0 1.88373Z" sodipodi:nodetypes="ccccccc"/><ellipse id="shape25" transform="translate(29.952, 52.848)" rx="1.584" ry="1.512" cx="1.584" cy="1.512" fill="#737373" fill-rule="evenodd" stroke="#000000" stroke-width="0.54432" stroke-linecap="square" stroke-linejoin="bevel"/><path id="shape26" transform="translate(37.692001357857, 31.8420011471103)" fill="none" stroke="#000000" stroke-width="0.54432" stroke-linecap="square" stroke-linejoin="miter" stroke-miterlimit="2" d="M0 0.018L0.432 0" sodipodi:nodetypes="cc"/><path id="shape27" transform="translate(37.494001350724, 32.3280011646185)" fill="none" stroke="#000000" stroke-width="0.54432" stroke-linecap="square" stroke-linejoin="miter" stroke-miterlimit="2" d="M0 0L0.954 0.054" sodipodi:nodetypes="cc"/><path id="shape28" transform="translate(37.5660013533178, 32.5620011730484)" fill="none" stroke="#000000" stroke-width="0.54432" stroke-linecap="square" stroke-linejoin="miter" stroke-miterlimit="2" d="M0 0L0.846 0.072" sodipodi:nodetypes="cc"/><path id="shape29" transform="translate(37.3860013468333, 32.9220011860174)" fill="none" stroke="#000000" stroke-width="0.54432" stroke-linecap="square" stroke-linejoin="miter" stroke-miterlimit="2" d="M0 0L1.494 0.018" sodipodi:nodetypes="cc"/><path id="shape30" transform="translate(37.6200013552632, 33.0300011899081)" fill="none" stroke="#000000" stroke-width="0.54432" stroke-linecap="square" stroke-linejoin="miter" stroke-miterlimit="2" d="M0 0L0.72 0.108" sodipodi:nodetypes="cc"/><path id="shape31" transform="translate(37.4760013500756, 33.3000011996349)" fill="none" stroke="#000000" stroke-width="0.54432" stroke-linecap="square" stroke-linejoin="miter" stroke-miterlimit="2" d="M0 0L0.792 0" sodipodi:nodetypes="cc"/><path id="shape32" transform="translate(37.602000259724, 31.6350002185088)" fill="none" stroke="#000000" stroke-width="0.54432" stroke-linecap="square" stroke-linejoin="miter" stroke-miterlimit="2" d="M0 0L0.486 0" sodipodi:nodetypes="cc"/><path id="shape33" transform="translate(37.3950002582942, 33.4620002311283)" fill="none" stroke="#000000" stroke-width="0.54432" stroke-linecap="square" stroke-linejoin="miter" stroke-miterlimit="2" d="M0 0.009L0.756 0" sodipodi:nodetypes="cc"/>
</svg>
